<svg width="16" height="16" viewBox="0 0 16 16" fill="none" xmlns="http://www.w3.org/2000/svg">
<path d="M3.33268 14.6668C3.15587 14.6668 2.9863 14.5966 2.86128 14.4716C2.73625 14.3465 2.66602 14.177 2.66602 14.0002V2.00016C2.66602 1.82335 2.73625 1.65378 2.86128 1.52876C2.9863 1.40373 3.15587 1.3335 3.33268 1.3335H12.666C12.8428 1.3335 13.0124 1.40373 13.1374 1.52876C13.2624 1.65378 13.3327 1.82335 13.3327 2.00016V4.00016H11.9993V2.66683H3.99935V13.3335H11.9993V12.0002H13.3327V14.0002C13.3327 14.177 13.2624 14.3465 13.1374 14.4716C13.0124 14.5966 12.8428 14.6668 12.666 14.6668H3.33268ZM11.9993 10.6668V8.66683H7.33268V7.3335H11.9993V5.3335L15.3327 8.00016L11.9993 10.6668Z" fill="#F45555"/>
</svg>
