<svg width="24" height="24" viewBox="0 0 24 24" fill="none" xmlns="http://www.w3.org/2000/svg">
<path d="M3.53521 0.00199838H20.4626C22.4166 0.00199838 23.9963 1.58183 23.9963 3.53583V20.4639C23.9963 22.4179 22.4166 23.9977 20.4626 23.9977H3.53521C1.58128 23.9977 0.0015101 22.4179 0.0015101 20.4639V3.53583C0.0015101 1.58183 1.58128 0.00199838 3.53521 0.00199838Z" stroke="#D5DCEB" stroke-width="0.0030202"/>
<path fill-rule="evenodd" clip-rule="evenodd" d="M3.53521 0.000488281H20.4626C22.4174 0.000488281 23.9979 1.581 23.9979 3.53583V20.4639C23.9979 22.4187 22.4174 23.9992 20.4626 23.9992H3.53521C1.58045 23.9992 0 22.4187 0 20.4639V3.53583C0 1.581 1.58045 0.000488281 3.53521 0.000488281Z" fill="white"/>
<path fill-rule="evenodd" clip-rule="evenodd" d="M12.1434 4.41008C16.4688 4.49326 19.9625 8.02861 19.9625 12.3958C19.9625 16.8046 16.3857 20.3399 11.977 20.3399C7.61001 20.3399 4.0332 16.8046 4.0332 12.3958C4.0332 8.31975 7.06933 4.95078 11.0204 4.45167C10.9789 4.32689 10.9373 4.11893 10.8957 3.99416C10.8541 3.78619 10.8541 3.70301 10.8541 3.61982C10.8541 3.57823 10.8541 3.53664 10.8957 3.49505C10.9373 3.49505 10.9789 3.45346 11.0204 3.49505C11.062 3.49505 11.1036 3.53664 11.1868 3.61982C11.2284 3.66142 11.3116 3.78619 11.4779 3.91097C11.6027 3.99416 11.7691 4.16052 11.9354 4.2853C12.0186 4.32689 12.0602 4.36849 12.1434 4.41008ZM11.0204 5.69944C10.9789 5.82422 10.9373 5.94899 10.8957 6.07377C10.8541 6.28173 10.8541 6.36492 10.8541 6.4481C10.8541 6.48969 10.8541 6.53129 10.8957 6.57288C10.9373 6.57288 10.9789 6.61447 11.0204 6.57288C11.062 6.57288 11.1036 6.53129 11.1868 6.4481C11.2284 6.40651 11.3116 6.28173 11.4779 6.15696C11.6027 6.07377 11.7691 5.9074 11.9354 5.78262C12.0186 5.69944 12.1018 5.65785 12.185 5.61626C15.845 5.69944 18.7563 8.69409 18.7563 12.3958C18.7563 16.1391 15.7202 19.1753 11.977 19.1753C8.23387 19.1753 5.23933 16.1391 5.23933 12.3958C5.23933 8.98523 7.73478 6.15696 11.0204 5.69944Z" fill="#1D3863"/>
<path fill-rule="evenodd" clip-rule="evenodd" d="M8.15069 12.2298C8.31706 12.2714 8.52501 12.3546 8.69137 12.3961C8.81614 12.4793 8.94092 12.5625 9.0241 12.6041C9.10728 12.6457 9.14887 12.6873 9.23205 12.7289C9.27364 12.7289 9.35682 12.7289 9.44 12.6873C9.4816 12.6873 9.56478 12.6457 9.64796 12.5209C9.77273 12.3961 9.8975 12.1882 10.1055 11.9386C10.3134 11.6891 10.6045 11.3979 10.8957 11.0652C11.1868 10.774 11.5195 10.4413 11.8107 10.1918C12.1018 9.9422 12.3929 9.73424 12.6425 9.56787C12.8504 9.4015 13.0584 9.31831 13.2248 9.23513C13.3911 9.15194 13.5159 9.11035 13.5991 9.11035C13.7239 9.15194 13.807 9.19354 13.8486 9.23513C13.8902 9.27672 13.9318 9.35991 13.8902 9.4015C13.8902 9.48468 13.8486 9.56787 13.7239 9.73424C13.5991 9.85901 13.4327 10.0254 13.1832 10.3165C12.9752 10.5661 12.6425 10.8988 12.3929 11.19C12.1018 11.4811 11.8939 11.7307 11.6443 12.0634C11.3948 12.3546 11.1868 12.6873 10.9789 13.02C10.7293 13.3528 10.563 13.6855 10.3966 13.9767C10.2302 14.3094 10.147 14.5589 10.0639 14.8085C9.98068 15.0165 9.93909 15.1828 9.8975 15.3076C9.85591 15.4324 9.77273 15.474 9.73114 15.5156C9.68955 15.5572 9.60637 15.5572 9.52319 15.5572C9.4816 15.5156 9.44 15.474 9.39841 15.3492C9.31523 15.2244 9.27364 15.0581 9.19046 14.8917C9.06569 14.6837 8.94092 14.4758 8.77455 14.2678C8.5666 14.0182 8.31706 13.7687 8.1091 13.5191C7.85956 13.2696 7.69319 13.1032 7.56842 12.9368C7.40206 12.8121 7.31888 12.7289 7.27729 12.6457C7.2357 12.5625 7.2357 12.4377 7.27729 12.313C7.36047 12.2298 7.48524 12.1466 7.6516 12.1466C7.77638 12.105 7.98433 12.1466 8.15069 12.2298Z" fill="#1D3863"/>
<path fill-rule="evenodd" clip-rule="evenodd" d="M11.9784 12.6873C12.0199 12.6873 12.0199 12.6873 12.0199 12.7289C12.1031 12.7289 12.1863 12.7289 12.2279 12.6873C12.3111 12.6873 12.3943 12.6457 12.4774 12.5209C12.6022 12.3961 12.727 12.1882 12.9349 11.9386C13.1429 11.6891 13.434 11.3979 13.7252 11.0652C14.0163 10.774 14.3074 10.4413 14.5986 10.1918C14.9313 9.9422 15.2224 9.73424 15.4304 9.56787C15.6799 9.4015 15.8879 9.31831 16.0543 9.23513C16.179 9.15194 16.3038 9.11035 16.4286 9.11035C16.5118 9.15194 16.6365 9.19354 16.6781 9.23513C16.7197 9.27672 16.7197 9.35991 16.7197 9.4015C16.7197 9.48468 16.6365 9.56787 16.5533 9.73424C16.4286 9.85901 16.2622 10.0254 16.0127 10.3165C15.7631 10.5661 15.472 10.8988 15.2224 11.19C14.9313 11.4811 14.6818 11.7307 14.4738 12.0634C14.2243 12.3546 13.9747 12.6873 13.7668 13.02C13.5588 13.3528 13.3509 13.6855 13.2261 13.9767C13.0597 14.3094 12.9349 14.5589 12.8518 14.8085C12.7686 15.0165 12.727 15.1828 12.6854 15.3076C12.6438 15.4324 12.6022 15.474 12.5606 15.5156C12.4774 15.5572 12.3943 15.5572 12.3527 15.5572C12.3111 15.5156 12.2279 15.474 12.1863 15.3492C12.1447 15.2244 12.1031 15.0581 11.9784 14.8917C11.8952 14.6837 11.7704 14.4758 11.5625 14.2678C11.4377 14.1014 11.3129 13.9351 11.1881 13.8103C11.0634 13.6439 11.0634 13.5607 11.105 13.436C11.1881 13.3112 11.2713 13.1864 11.3961 13.02C11.4377 12.9368 11.5209 12.8121 11.604 12.7289C11.6456 12.6457 11.812 12.6041 11.9784 12.6873Z" fill="#1D3863"/>
</svg>
